# Blender v2.93.1 OBJ File: 'Table.blend'
# www.blender.org
mtllib Table.mtl
o Cube
v -6.966468 -0.514617 4.780926
v -6.966468 -0.514617 -4.780926
v 6.966468 -0.514617 4.780926
v 6.966468 -0.514617 -4.780926
v -6.497909 0.219275 -4.459365
v 6.497909 0.219275 -4.459365
v -6.497909 0.219275 4.459365
v 6.497909 0.219275 4.459365
v -6.497909 0.446394 4.459365
v -6.497909 0.446394 -4.459365
v 6.497909 0.446394 4.459365
v 6.497909 0.446394 -4.459365
v -6.966468 0.300273 -4.780926
v -6.658319 0.493246 -4.569451
v -6.943012 0.401713 -4.764829
v -6.876214 0.474006 -4.718987
v -6.776243 0.506149 -4.650379
v 6.658319 0.493246 -4.569451
v 6.966468 0.300273 -4.780926
v 6.776243 0.506149 -4.650379
v 6.876214 0.474006 -4.718987
v 6.943012 0.401713 -4.764829
v -6.966468 0.300273 4.780926
v -6.658319 0.493246 4.569451
v -6.943012 0.401713 4.764829
v -6.876214 0.474006 4.718987
v -6.776243 0.506149 4.650379
v 6.658319 0.493246 4.569451
v 6.966468 0.300273 4.780926
v 6.776243 0.506149 4.650379
v 6.876214 0.474006 4.718987
v 6.943012 0.401713 4.764829
v -5.118903 -4.465706 -3.518169
v -5.118903 0.038687 -3.518169
v -5.118903 -4.465706 -2.656697
v -5.118903 0.038687 -2.656697
v -5.980375 -4.465706 -3.518169
v -5.980375 0.038687 -3.518169
v -5.980375 -4.465706 -2.656697
v -5.980375 0.038687 -2.656697
v 5.118903 -4.465706 -3.518169
v 5.118903 0.038687 -3.518169
v 5.118903 -4.465706 -2.656697
v 5.118903 0.038687 -2.656697
v 5.980375 -4.465706 -3.518169
v 5.980375 0.038687 -3.518169
v 5.980375 -4.465706 -2.656697
v 5.980375 0.038687 -2.656697
v -5.118903 -4.465706 3.518169
v -5.118903 0.038687 3.518169
v -5.118903 -4.465706 2.656697
v -5.118903 0.038687 2.656697
v -5.980375 -4.465706 3.518169
v -5.980375 0.038687 3.518169
v -5.980375 -4.465706 2.656697
v -5.980375 0.038687 2.656697
v 5.118903 -4.465706 3.518169
v 5.118903 0.038687 3.518169
v 5.118903 -4.465706 2.656697
v 5.118903 0.038687 2.656697
v 5.980375 -4.465706 3.518169
v 5.980375 0.038687 3.518169
v 5.980375 -4.465706 2.656697
v 5.980375 0.038687 2.656697
vt 0.633407 0.508407
vt 0.633407 0.741593
vt 0.630529 0.744471
vt 0.630529 0.505529
vt 0.866593 0.741593
vt 0.866593 0.508407
vt 0.869471 0.505529
vt 0.869471 0.744471
vt 0.125000 0.500000
vt 0.375000 0.500000
vt 0.375000 0.750000
vt 0.125000 0.750000
vt 0.564354 0.750000
vt 0.564354 1.000000
vt 0.375000 1.000000
vt 0.375000 0.250000
vt 0.564354 0.250000
vt 0.564354 0.500000
vt 0.375000 0.000000
vt 0.564354 0.000000
vt 0.871587 0.746384
vt 0.628413 0.746384
vt 0.873381 0.750000
vt 0.626619 0.750000
vt 0.625000 0.751619
vt 0.625000 0.998381
vt 0.586094 0.999579
vt 0.586094 0.750421
vt 0.628517 0.746587
vt 0.628517 0.503413
vt 0.625000 0.748381
vt 0.625000 0.501619
vt 0.586094 0.749579
vt 0.586094 0.500421
vt 0.871483 0.503413
vt 0.871483 0.746587
vt 0.875000 0.501619
vt 0.875000 0.748381
vt 0.625000 0.001619
vt 0.625000 0.248381
vt 0.586094 0.249579
vt 0.586094 0.000421
vt 0.628413 0.503616
vt 0.871587 0.503616
vt 0.626620 0.500000
vt 0.873381 0.500000
vt 0.625000 0.251619
vt 0.625000 0.498381
vt 0.586094 0.499579
vt 0.586094 0.250421
vt 0.375000 0.000000
vt 0.625000 0.000000
vt 0.625000 0.250000
vt 0.375000 0.250000
vt 0.625000 0.500000
vt 0.375000 0.500000
vt 0.625000 0.750000
vt 0.375000 0.750000
vt 0.625000 1.000000
vt 0.375000 1.000000
vt 0.125000 0.500000
vt 0.125000 0.750000
vt 0.875000 0.500000
vt 0.875000 0.750000
vt 0.375000 0.000000
vt 0.375000 0.250000
vt 0.625000 0.250000
vt 0.625000 0.000000
vt 0.375000 0.500000
vt 0.625000 0.500000
vt 0.375000 0.750000
vt 0.625000 0.750000
vt 0.375000 1.000000
vt 0.625000 1.000000
vt 0.125000 0.500000
vt 0.125000 0.750000
vt 0.875000 0.750000
vt 0.875000 0.500000
vt 0.375000 0.000000
vt 0.375000 0.250000
vt 0.625000 0.250000
vt 0.625000 0.000000
vt 0.375000 0.500000
vt 0.625000 0.500000
vt 0.375000 0.750000
vt 0.625000 0.750000
vt 0.375000 1.000000
vt 0.625000 1.000000
vt 0.125000 0.500000
vt 0.125000 0.750000
vt 0.875000 0.750000
vt 0.875000 0.500000
vt 0.375000 0.000000
vt 0.625000 0.000000
vt 0.625000 0.250000
vt 0.375000 0.250000
vt 0.625000 0.500000
vt 0.375000 0.500000
vt 0.625000 0.750000
vt 0.375000 0.750000
vt 0.625000 1.000000
vt 0.375000 1.000000
vt 0.125000 0.500000
vt 0.125000 0.750000
vt 0.875000 0.500000
vt 0.875000 0.750000
vt 0.866593 0.741593
vt 0.866593 0.508407
vt 0.633407 0.508407
vt 0.633407 0.741593
vn 0.2804 0.9599 0.0000
vn -0.2804 0.9599 0.0000
vn 0.0000 -1.0000 0.0000
vn 0.0000 0.0000 -1.0000
vn 0.0000 0.9201 -0.3916
vn 0.0000 0.0000 1.0000
vn 0.0000 0.9201 0.3916
vn 1.0000 0.0000 0.0000
vn 0.0000 0.9875 0.1574
vn 0.0000 0.9055 -0.4242
vn 0.0000 0.5355 -0.8445
vn 0.0000 0.1567 -0.9876
vn 0.1088 0.9941 0.0000
vn -0.3061 0.9520 0.0000
vn -0.7345 0.6786 0.0000
vn -0.9743 0.2253 0.0000
vn -0.1088 0.9941 0.0000
vn 0.3061 0.9520 0.0000
vn 0.7345 0.6786 0.0000
vn 0.9743 0.2253 0.0000
vn 0.0000 0.9875 -0.1574
vn 0.0000 0.9055 0.4242
vn 0.0000 0.5355 0.8445
vn 0.0000 0.1567 0.9876
vn -1.0000 0.0000 0.0000
vn 0.0000 1.0000 0.0000
usemtl Material
s off
f 9/1/1 10/2/1 14/3/1 24/4/1
f 12/5/2 11/6/2 28/7/2 18/8/2
f 3/9/3 1/10/3 2/11/3 4/12/3
f 2/11/4 13/13/4 19/14/4 4/15/4
f 11/6/5 9/1/5 24/4/5 28/7/5
f 3/16/6 29/17/6 23/18/6 1/10/6
f 10/2/7 12/5/7 18/8/7 14/3/7
f 4/19/8 19/20/8 29/17/8 3/16/8
f 14/3/9 18/8/9 20/21/9 17/22/9
f 17/22/10 20/21/10 21/23/10 16/24/10
f 16/25/11 21/26/11 22/27/11 15/28/11
f 15/28/12 22/27/12 19/14/12 13/13/12
f 24/4/13 14/3/13 17/29/13 27/30/13
f 27/30/14 17/29/14 16/31/14 26/32/14
f 26/32/15 16/31/15 15/33/15 25/34/15
f 25/34/16 15/33/16 13/13/16 23/18/16
f 18/8/17 28/7/17 30/35/17 20/36/17
f 20/36/18 30/35/18 31/37/18 21/38/18
f 21/39/19 31/40/19 32/41/19 22/42/19
f 22/42/20 32/41/20 29/17/20 19/20/20
f 28/7/21 24/4/21 27/43/21 30/44/21
f 30/44/22 27/43/22 26/45/22 31/46/22
f 31/47/23 26/48/23 25/49/23 32/50/23
f 32/50/24 25/49/24 23/18/24 29/17/24
f 1/10/25 23/18/25 13/13/25 2/11/25
f 33/51/8 34/52/8 36/53/8 35/54/8
f 35/54/6 36/53/6 40/55/6 39/56/6
f 39/56/25 40/55/25 38/57/25 37/58/25
f 37/58/4 38/57/4 34/59/4 33/60/4
f 35/61/3 39/56/3 37/58/3 33/62/3
f 40/55/26 36/63/26 34/64/26 38/57/26
f 41/65/25 43/66/25 44/67/25 42/68/25
f 43/66/6 47/69/6 48/70/6 44/67/6
f 47/69/8 45/71/8 46/72/8 48/70/8
f 45/71/4 41/73/4 42/74/4 46/72/4
f 43/75/3 41/76/3 45/71/3 47/69/3
f 48/70/26 46/72/26 42/77/26 44/78/26
f 49/79/8 51/80/8 52/81/8 50/82/8
f 51/80/4 55/83/4 56/84/4 52/81/4
f 55/83/25 53/85/25 54/86/25 56/84/25
f 53/85/6 49/87/6 50/88/6 54/86/6
f 51/89/3 49/90/3 53/85/3 55/83/3
f 56/84/26 54/86/26 50/91/26 52/92/26
f 57/93/25 58/94/25 60/95/25 59/96/25
f 59/96/4 60/95/4 64/97/4 63/98/4
f 63/98/8 64/97/8 62/99/8 61/100/8
f 61/100/6 62/99/6 58/101/6 57/102/6
f 59/103/3 63/98/3 61/100/3 57/104/3
f 64/97/26 60/105/26 58/106/26 62/99/26
usemtl Felt
f 11/6/25 12/5/25 6/107/25 8/108/25
f 9/1/4 11/6/4 8/108/4 7/109/4
f 12/5/6 10/2/6 5/110/6 6/107/6
f 7/109/26 8/108/26 6/107/26 5/110/26
f 10/2/8 9/1/8 7/109/8 5/110/8
